<?xml version="1.0" encoding="utf-8"?>
<!-- Generator: Adobe Illustrator 27.5.0, SVG Export Plug-In . SVG Version: 6.00 Build 0)  -->
<svg version="1.1" id="Layer_1" xmlns="http://www.w3.org/2000/svg" xmlns:xlink="http://www.w3.org/1999/xlink" x="0px" y="0px"
	 viewBox="0 0 221 212" style="enable-background:new 0 0 221 212;" xml:space="preserve">
<style type="text/css">
	.st0{fill:#1E1E1E;stroke:#000000;stroke-miterlimit:10;}
	.st1{opacity:0.89;fill:#F4521C;}
	.st2{fill:#077E60;stroke:#1A9AE7;stroke-miterlimit:10;}
</style>
<rect x="-0.5" y="0.09" class="st0" width="221" height="211.69"/>
<polygon class="st1" points="126.35,1.33 74.82,129.12 107.32,125.9 84.03,210.04 145.49,96.46 112.63,99.95 "/>
<g>
	<g>
		<path class="st2" d="M22.37,60.21c0-0.31-0.07-0.55-0.22-0.71c-0.15-0.17-0.54-0.22-1.17-0.16c0-0.27,0-0.53,0-0.8
			c5.51-1.31,11.03-2.51,16.58-3.59c2.3-0.45,4.31-0.37,6.02,0.21c1.71,0.59,3.11,1.58,4.22,2.97c1.11,1.39,1.94,3.11,2.49,5.16
			c0.55,2.05,0.83,4.31,0.83,6.8c0,2.27-0.29,4.51-0.88,6.71c-0.59,2.21-1.48,4.22-2.67,6.04c-1.19,1.82-2.66,3.38-4.42,4.67
			c-1.76,1.29-3.81,2.16-6.14,2.62c-5.36,1.05-10.7,2.21-16.02,3.48c0-0.27,0-0.53,0-0.8c0.63-0.24,1.02-0.48,1.17-0.71
			c0.15-0.24,0.22-0.51,0.22-0.82C22.37,80.93,22.37,70.57,22.37,60.21z M36.2,82.43c2.64-0.52,4.54-1.77,5.71-3.79
			c1.17-2.02,1.76-4.44,1.76-7.29c0-2.84-0.59-5.07-1.76-6.65c-1.17-1.59-3.08-2.13-5.71-1.61c-2.12,0.42-4.24,0.86-6.35,1.31
			c0,6.45,0,12.9,0,19.34C31.97,83.29,34.08,82.85,36.2,82.43z"/>
		<path class="st2" d="M74.53,71.81c-0.07-0.44-0.21-0.79-0.43-1.06c-0.22-0.27-0.58-0.38-1.09-0.32c-3.14,0.32-6.27,0.68-9.4,1.08
			c0,2.07,0,4.14,0,6.2c5.4-0.69,10.82-1.26,16.24-1.73c0.27-0.02,0.47-0.16,0.61-0.42c0.13-0.26,0.24-0.81,0.3-1.66
			c0.2-0.02,0.41-0.03,0.61-0.05c0,3.8,0,7.6,0,11.41c-0.2,0.02-0.41,0.03-0.61,0.05c-0.07-0.57-0.17-0.92-0.3-1.04
			c-0.13-0.12-0.34-0.17-0.61-0.15c-8.43,0.72-16.83,1.71-25.21,2.97c0-0.27,0-0.53,0-0.8c0.64-0.18,1.03-0.39,1.18-0.61
			c0.15-0.22,0.23-0.49,0.23-0.8c0-10.36,0-20.72,0-31.09c0-0.31-0.08-0.56-0.23-0.73c-0.15-0.18-0.55-0.26-1.18-0.26
			c0-0.27,0-0.53,0-0.8c8.38-1.26,16.79-2.25,25.21-2.97c0.27-0.02,0.47-0.16,0.61-0.42c0.13-0.26,0.24-0.76,0.3-1.53
			c0.2-0.02,0.41-0.03,0.61-0.05c0,3.87,0,7.74,0,11.61c-0.2,0.02-0.41,0.03-0.61,0.05c-0.07-0.75-0.17-1.24-0.3-1.48
			c-0.13-0.23-0.34-0.34-0.61-0.31c-5.42,0.47-10.83,1.04-16.24,1.73c0,1.85,0,3.69,0,5.54c3.13-0.4,6.26-0.76,9.4-1.08
			c0.51-0.05,0.87-0.23,1.09-0.54c0.22-0.31,0.36-0.69,0.43-1.14c0.2-0.02,0.4-0.04,0.61-0.06c0,3.47,0,6.94,0,10.41
			C74.94,71.77,74.73,71.79,74.53,71.81z"/>
		<path class="st2" d="M88.06,69.96c-0.07,0.27-0.1,0.74-0.1,1.41c0,0.45,0.31,0.92,0.94,1.44c0.63,0.52,1.44,0.99,2.43,1.42
			c1,0.43,2.14,0.78,3.43,1.05c1.29,0.27,2.59,0.38,3.91,0.33c2.54-0.1,4.4-0.54,5.59-1.34c1.18-0.81,1.78-1.94,1.78-3.41
			c0-0.8-0.52-1.36-1.55-1.67c-1.03-0.31-2.33-0.54-3.88-0.69c-1.56-0.15-3.23-0.3-5.03-0.46c-1.79-0.16-3.47-0.52-5.02-1.07
			c-1.56-0.55-2.85-1.4-3.88-2.55c-1.03-1.15-1.55-2.79-1.55-4.93c0-1.69,0.3-3.25,0.89-4.67c0.59-1.42,1.42-2.66,2.49-3.7
			c1.07-1.05,2.36-1.89,3.88-2.53c1.52-0.64,3.21-1,5.08-1.08c1.73-0.07,3.33,0.02,4.82,0.26c1.49,0.25,2.81,0.54,3.96,0.87
			c1.15,0.33,2.12,0.64,2.9,0.92c0.78,0.28,1.34,0.42,1.68,0.42c0.34,0,0.61-0.1,0.81-0.31c0.2-0.2,0.39-0.44,0.56-0.7
			c0.19,0.09,0.37,0.18,0.56,0.26c-1.17,3.1-2.34,6.2-3.5,9.3c-0.2-0.13-0.41-0.26-0.61-0.39c0-0.24,0-0.49,0-0.73
			c0-0.4-0.33-0.81-0.99-1.22c-0.66-0.41-1.5-0.77-2.51-1.09c-1.02-0.31-2.15-0.56-3.4-0.74c-1.25-0.18-2.47-0.25-3.66-0.2
			c-2.2,0.09-3.74,0.5-4.62,1.21c-0.88,0.71-1.32,1.45-1.32,2.21c0,0.76,0.3,1.31,0.91,1.65c0.61,0.35,1.4,0.58,2.39,0.72
			c0.98,0.13,2.1,0.23,3.35,0.29c1.25,0.06,2.54,0.19,3.86,0.37c1.32,0.18,2.61,0.46,3.86,0.84c1.25,0.38,2.37,0.95,3.35,1.72
			c0.98,0.77,1.78,1.79,2.39,3.05c0.61,1.26,0.91,2.85,0.91,4.77c0,1.47-0.23,2.91-0.69,4.34c-0.46,1.43-1.24,2.71-2.34,3.85
			c-1.1,1.15-2.57,2.06-4.42,2.77c-1.85,0.71-4.14,1.1-6.88,1.21c-2.13,0.08-3.97,0.04-5.51-0.15c-1.54-0.19-2.85-0.43-3.93-0.74
			c-1.08-0.31-1.94-0.6-2.56-0.87c-0.63-0.27-1.09-0.39-1.39-0.37c-0.2,0.01-0.38,0.12-0.53,0.31c-0.15,0.19-0.31,0.4-0.48,0.64
			c-0.2-0.05-0.41-0.1-0.61-0.15c1.25-4.05,2.5-8.1,3.75-12.14C87.72,69.76,87.89,69.86,88.06,69.96z"/>
		<path class="st2" d="M137.16,70.5c-0.07-0.45-0.21-0.82-0.43-1.13c-0.22-0.3-0.58-0.47-1.09-0.49c-3.15-0.17-6.29-0.3-9.44-0.39
			c0,2.07,0,4.14,0,6.2c5.43,0.16,10.86,0.44,16.29,0.82c0.27,0.02,0.47-0.09,0.61-0.32c0.13-0.23,0.24-0.77,0.3-1.61
			c0.2,0.01,0.41,0.03,0.61,0.04c0,3.8,0,7.6,0,11.41c-0.2-0.02-0.41-0.03-0.61-0.04c-0.07-0.58-0.17-0.95-0.3-1.09
			c-0.14-0.14-0.34-0.22-0.61-0.24c-8.43-0.6-16.88-0.92-25.33-0.99c0-0.27,0-0.53,0-0.8c0.64-0.08,1.04-0.22,1.19-0.42
			c0.15-0.2,0.23-0.45,0.23-0.76c0-10.36,0-20.72,0-31.09c0-0.31-0.08-0.57-0.23-0.77c-0.15-0.2-0.55-0.35-1.19-0.44
			c0-0.27,0-0.53,0-0.8c8.45,0.06,16.9,0.39,25.33,0.99c0.27,0.02,0.47-0.09,0.61-0.32c0.13-0.23,0.24-0.73,0.3-1.48
			c0.2,0.01,0.41,0.03,0.61,0.04c0,3.87,0,7.74,0,11.61c-0.2-0.02-0.41-0.03-0.61-0.04c-0.07-0.76-0.17-1.27-0.3-1.52
			c-0.14-0.25-0.34-0.39-0.61-0.41c-5.43-0.38-10.86-0.66-16.29-0.82c0,1.85,0,3.69,0,5.54c3.15,0.09,6.3,0.23,9.44,0.39
			c0.51,0.03,0.87-0.1,1.09-0.37c0.22-0.28,0.36-0.64,0.43-1.08c0.2,0.01,0.41,0.02,0.61,0.04c0,3.47,0,6.94,0,10.41
			C137.56,70.52,137.36,70.51,137.16,70.5z"/>
		<path class="st2" d="M157.47,82.99c0,0.31,0.08,0.58,0.23,0.79c0.15,0.22,0.55,0.4,1.19,0.56c0,0.27,0,0.53,0,0.8
			c-3.47-0.39-6.95-0.73-10.43-1.03c0-0.27,0-0.53,0-0.8c0.64-0.03,1.04-0.14,1.19-0.33c0.15-0.19,0.23-0.44,0.23-0.75
			c0-10.36,0-20.72,0-31.09c0-0.31-0.08-0.57-0.23-0.79c-0.15-0.21-0.55-0.39-1.19-0.54c0-0.27,0-0.53,0-0.8
			c6.18,0.53,12.35,1.2,18.51,2.02c3.73,0.5,6.44,1.8,8.12,3.86c1.68,2.06,2.52,4.99,2.52,8.77c0,3.07-0.68,5.36-2.04,6.88
			c-1.36,1.52-3.08,2.51-5.16,2.97c1.98,3.97,3.96,7.96,5.94,11.96c0.4,0.86,0.89,1.34,1.46,1.43c0,0.27,0,0.53,0,0.8
			c-3.49-0.56-6.98-1.07-10.48-1.54c0-0.27,0-0.53,0-0.8c0.74,0.05,1.11-0.29,1.11-1.05c0-0.09-0.13-0.42-0.4-0.99
			c-0.27-0.57-0.61-1.26-1.01-2.07c-0.4-0.81-0.85-1.68-1.34-2.61c-0.49-0.93-0.96-1.82-1.41-2.68c-0.45-0.86-0.85-1.62-1.19-2.28
			c-0.34-0.66-0.56-1.11-0.66-1.35c-1.65-0.2-3.3-0.39-4.95-0.57C157.47,75.52,157.47,79.25,157.47,82.99z M165.96,65.72
			c1.48,0.19,2.5-0.03,3.05-0.69c0.55-0.66,0.83-1.47,0.83-2.45c0-0.98-0.28-1.87-0.83-2.68c-0.55-0.81-1.57-1.32-3.05-1.51
			c-2.83-0.37-5.66-0.7-8.49-1.01c0,2.45,0,4.89,0,7.34C160.31,65.02,163.13,65.35,165.96,65.72z"/>
		<path class="st2" d="M188.45,88.78c0.63,0.03,1.03-0.04,1.18-0.21c0.15-0.17,0.23-0.41,0.23-0.72c0-8.32,0-16.63,0-24.95
			c-2.87-0.55-5.75-1.07-8.63-1.56c-0.27-0.05-0.47,0.04-0.6,0.26c-0.13,0.22-0.24,0.71-0.3,1.45c-0.2-0.03-0.4-0.07-0.6-0.1
			c0-3.96,0-7.92,0-11.87c0.2,0.03,0.4,0.07,0.6,0.1c0.07,0.77,0.17,1.28,0.3,1.55c0.13,0.27,0.34,0.42,0.6,0.47
			c8.28,1.4,16.52,3.06,24.72,4.99c0.27,0.06,0.46-0.01,0.6-0.23c0.13-0.21,0.23-0.69,0.3-1.43c0.2,0.05,0.4,0.09,0.6,0.14
			c0,3.96,0,7.92,0,11.87c-0.2-0.05-0.4-0.09-0.6-0.14c-0.07-0.77-0.17-1.3-0.3-1.57c-0.13-0.27-0.33-0.44-0.6-0.51
			c-2.85-0.67-5.71-1.31-8.58-1.91c0,8.32,0,16.63,0,24.95c0,0.31,0.07,0.58,0.23,0.82c0.15,0.23,0.54,0.46,1.17,0.68
			c0,0.27,0,0.53,0,0.8c-3.43-0.74-6.87-1.43-10.31-2.08C188.45,89.31,188.45,89.04,188.45,88.78z"/>
	</g>
</g>
<g>
	<g>
		<path class="st2" d="M24.95,168.43c0.51,0.02,0.82-0.05,0.94-0.23c0.12-0.17,0.18-0.42,0.18-0.73c0-8.32,0-16.63,0-24.95
			c-2.29-0.5-4.58-1.02-6.87-1.55c-0.21-0.05-0.37,0.04-0.48,0.25c-0.11,0.22-0.19,0.7-0.24,1.44c-0.16-0.04-0.32-0.08-0.48-0.11
			c0-3.96,0-7.92,0-11.87c0.16,0.04,0.32,0.08,0.48,0.11c0.05,0.77,0.13,1.29,0.24,1.56c0.11,0.27,0.26,0.43,0.48,0.48
			c6.56,1.55,13.16,2.93,19.77,4.14c0.21,0.04,0.38-0.05,0.48-0.28c0.11-0.22,0.19-0.71,0.24-1.46c0.16,0.03,0.32,0.06,0.48,0.09
			c0,3.96,0,7.92,0,11.87c-0.16-0.03-0.32-0.06-0.48-0.09c-0.05-0.77-0.13-1.28-0.24-1.55c-0.11-0.26-0.27-0.42-0.48-0.45
			c-2.3-0.42-4.6-0.87-6.9-1.33c0,8.32,0,16.63,0,24.95c0,0.31,0.06,0.58,0.18,0.8c0.12,0.22,0.43,0.43,0.94,0.62
			c0,0.27,0,0.53,0,0.8c-2.75-0.55-5.5-1.12-8.25-1.73C24.95,168.97,24.95,168.7,24.95,168.43z"/>
		<path class="st2" d="M66.33,174.13c0,0.31,0.06,0.57,0.18,0.79c0.12,0.21,0.44,0.39,0.95,0.54c0,0.27,0,0.53,0,0.8
			c-2.78-0.31-5.56-0.65-8.33-1.01c0-0.27,0-0.53,0-0.8c0.51-0.02,0.83-0.12,0.95-0.31c0.12-0.18,0.18-0.43,0.18-0.74
			c0-4.11,0-8.23,0-12.34c-3.5-0.45-7-0.95-10.5-1.5c0,4.11,0,8.23,0,12.34c0,0.31,0.06,0.58,0.18,0.8
			c0.12,0.22,0.44,0.41,0.95,0.58c0,0.27,0,0.53,0,0.8c-2.77-0.42-5.54-0.88-8.3-1.36c0-0.27,0-0.53,0-0.8
			c0.51,0,0.82-0.09,0.95-0.27c0.12-0.18,0.18-0.42,0.18-0.74c0-10.36,0-20.72,0-31.09c0-0.31-0.06-0.58-0.18-0.8
			c-0.12-0.22-0.44-0.42-0.95-0.6c0-0.27,0-0.53,0-0.8c2.76,0.48,5.53,0.93,8.3,1.36c0,0.27,0,0.53,0,0.8
			c-0.51,0.01-0.83,0.11-0.95,0.29c-0.12,0.18-0.18,0.43-0.18,0.74c0,3.54,0,7.07,0,10.61c3.49,0.54,6.99,1.04,10.5,1.5
			c0-3.54,0-7.07,0-10.61c0-0.31-0.06-0.57-0.18-0.79c-0.12-0.22-0.44-0.4-0.95-0.56c0-0.27,0-0.53,0-0.8
			c2.78,0.37,5.55,0.7,8.33,1.01c0,0.27,0,0.53,0,0.8c-0.51,0.03-0.83,0.14-0.95,0.33c-0.12,0.19-0.18,0.44-0.18,0.75
			C66.33,153.4,66.33,163.77,66.33,174.13z"/>
		<path class="st2" d="M89.61,145.02c0-0.31-0.06-0.57-0.18-0.78c-0.12-0.21-0.44-0.37-0.96-0.49c0-0.27,0-0.53,0-0.8
			c2.79,0.16,5.58,0.3,8.37,0.41c0,0.27,0,0.53,0,0.8c-0.51,0.07-0.83,0.2-0.96,0.4c-0.12,0.19-0.18,0.45-0.18,0.76
			c0,5.96,0,11.92,0,17.88c0,2.93-0.29,5.39-0.87,7.37c-0.58,1.98-1.38,3.54-2.4,4.69c-1.02,1.15-2.21,1.92-3.58,2.31
			c-1.37,0.39-2.82,0.53-4.37,0.42c-1.54-0.11-3-0.45-4.36-1.02c-1.37-0.58-2.56-1.51-3.57-2.8s-1.81-2.97-2.39-5.02
			c-0.58-2.06-0.87-4.55-0.87-7.49c0-5.96,0-11.92,0-17.88c0-0.31-0.06-0.57-0.18-0.78c-0.12-0.21-0.44-0.39-0.95-0.53
			c0-0.27,0-0.53,0-0.8c2.78,0.28,5.57,0.52,8.36,0.74c0,0.27,0,0.53,0,0.8c-0.51,0.05-0.83,0.17-0.95,0.36
			c-0.12,0.19-0.18,0.44-0.18,0.75c0,5.96,0,11.92,0,17.88c0,2.58,0.45,4.46,1.34,5.64c0.89,1.18,2.15,1.83,3.78,1.94
			c1.62,0.11,2.88-0.37,3.78-1.43c0.89-1.06,1.34-2.88,1.34-5.46C89.61,156.94,89.61,150.98,89.61,145.02z"/>
		<path class="st2" d="M102.7,145.54c0-0.31-0.06-0.57-0.18-0.77c-0.12-0.2-0.44-0.36-0.96-0.46c0-0.27,0-0.53,0-0.8
			c3.27,0.09,6.54,0.13,9.8,0.14c0,0.27,0,0.53,0,0.8c-0.46,0.04-0.77,0.14-0.92,0.3c-0.15,0.16-0.22,0.34-0.22,0.57
			c0,0.09,0.18,0.49,0.53,1.2c0.35,0.71,0.81,1.6,1.38,2.67c0.57,1.07,1.21,2.26,1.93,3.56c0.72,1.31,1.44,2.62,2.18,3.92
			c0.73,1.3,1.44,2.54,2.12,3.71c0.68,1.17,1.26,2.17,1.75,3.01c0-5.94,0-11.87,0-17.81c0-0.76-0.28-1.15-0.85-1.18
			c0-0.27,0-0.53,0-0.8c2.48-0.04,4.96-0.11,7.44-0.2c0,0.27,0,0.53,0,0.8c-0.52,0.11-0.83,0.26-0.96,0.47
			c-0.12,0.2-0.18,0.46-0.18,0.77c0,10.36,0,20.72,0,31.09c0,0.31,0.06,0.57,0.18,0.76c0.12,0.2,0.44,0.33,0.96,0.4
			c0,0.27,0,0.53,0,0.8c-2.58,0.09-5.15,0.16-7.73,0.2c0-0.27,0-0.53,0-0.8c0.38-0.01,0.63-0.08,0.75-0.21
			c0.12-0.14,0.18-0.31,0.18-0.54c0-0.13-0.04-0.3-0.12-0.5c-0.08-0.2-0.26-0.54-0.53-1.02c-0.27-0.48-0.67-1.18-1.2-2.08
			c-0.53-0.9-1.23-2.12-2.09-3.64c-0.87-1.53-1.94-3.43-3.21-5.72c-1.28-2.29-2.81-5.08-4.6-8.39c0,6.98,0,13.96,0,20.95
			c0,0.31,0.06,0.57,0.18,0.77c0.12,0.2,0.44,0.35,0.96,0.44c0,0.27,0,0.53,0,0.8c-2.58-0.02-5.15-0.06-7.73-0.13
			c0-0.27,0-0.53,0-0.8c0.52-0.08,0.83-0.21,0.96-0.41c0.12-0.2,0.18-0.45,0.18-0.76C102.7,166.26,102.7,155.9,102.7,145.54z"/>
		<path class="st2" d="M132.31,145.16c0-0.31-0.06-0.56-0.18-0.76c-0.12-0.19-0.44-0.32-0.96-0.39c0-0.27,0-0.53,0-0.8
			c4.5-0.21,8.99-0.49,13.49-0.85c1.87-0.15,3.49,0.15,4.87,0.92c1.38,0.76,2.51,1.89,3.41,3.37c0.89,1.49,1.56,3.28,2.01,5.36
			c0.45,2.09,0.67,4.38,0.67,6.87c0,2.27-0.24,4.48-0.71,6.65c-0.47,2.16-1.19,4.11-2.15,5.82c-0.96,1.72-2.15,3.14-3.57,4.24
			c-1.42,1.11-3.08,1.74-4.97,1.89c-4.34,0.34-8.69,0.61-13.04,0.82c0-0.27,0-0.53,0-0.8c0.51-0.11,0.83-0.27,0.96-0.48
			c0.12-0.21,0.18-0.46,0.18-0.78C132.31,165.88,132.31,155.52,132.31,145.16z M143.57,169.66c2.14-0.17,3.68-1.2,4.63-3.08
			c0.95-1.89,1.42-4.25,1.42-7.1c0-2.84-0.47-5.13-1.42-6.84c-0.95-1.72-2.49-2.48-4.63-2.32c-1.72,0.13-3.44,0.25-5.16,0.37
			c0,6.45,0,12.9,0,19.34C140.13,169.92,141.85,169.8,143.57,169.66z"/>
		<path class="st2" d="M174.36,161.16c-0.05-0.44-0.17-0.78-0.34-1.05c-0.18-0.26-0.46-0.36-0.87-0.3c-2.5,0.38-5,0.73-7.51,1.07
			c0,2.07,0,4.14,0,6.2c4.32-0.57,8.64-1.22,12.95-1.93c0.21-0.04,0.38-0.18,0.48-0.45c0.11-0.26,0.19-0.82,0.24-1.67
			c0.16-0.03,0.32-0.05,0.48-0.08c0,3.8,0,7.6,0,11.41c-0.16,0.03-0.32,0.05-0.48,0.08c-0.05-0.57-0.13-0.91-0.24-1.03
			c-0.11-0.12-0.27-0.16-0.48-0.12c-6.7,1.11-13.42,2.05-20.15,2.82c0-0.27,0-0.53,0-0.8c0.51-0.15,0.83-0.33,0.95-0.54
			c0.12-0.21,0.18-0.48,0.18-0.79c0-10.36,0-20.72,0-31.09c0-0.31-0.06-0.56-0.18-0.75c-0.12-0.19-0.44-0.29-0.95-0.32
			c0-0.27,0-0.53,0-0.8c6.73-0.77,13.45-1.71,20.15-2.82c0.21-0.04,0.38-0.18,0.48-0.45c0.11-0.26,0.19-0.78,0.24-1.54
			c0.16-0.03,0.32-0.05,0.48-0.08c0,3.87,0,7.74,0,11.61c-0.16,0.03-0.32,0.05-0.48,0.08c-0.05-0.75-0.13-1.23-0.24-1.46
			c-0.11-0.23-0.27-0.32-0.48-0.29c-4.31,0.71-8.63,1.36-12.95,1.93c0,1.85,0,3.69,0,5.54c2.51-0.33,5.01-0.69,7.51-1.07
			c0.4-0.06,0.69-0.25,0.87-0.57c0.17-0.32,0.29-0.7,0.34-1.15c0.16-0.03,0.32-0.05,0.48-0.08c0,3.47,0,6.94,0,10.41
			C174.69,161.11,174.52,161.14,174.36,161.16z"/>
		<path class="st2" d="M190.49,169.14c0,0.31,0.06,0.56,0.18,0.73c0.12,0.18,0.43,0.26,0.94,0.25c0,0.27,0,0.53,0,0.8
			c-2.75,0.55-5.51,1.07-8.27,1.56c0-0.27,0-0.53,0-0.8c0.51-0.18,0.82-0.38,0.95-0.6c0.12-0.22,0.18-0.49,0.18-0.8
			c0-10.36,0-20.72,0-31.09c0-0.31-0.06-0.56-0.18-0.73c-0.12-0.18-0.44-0.27-0.95-0.26c0-0.27,0-0.53,0-0.8
			c4.91-0.87,9.8-1.83,14.68-2.89c2.96-0.64,5.1-0.23,6.43,1.26c1.33,1.49,1.99,4.12,1.99,7.9c0,3.07-0.54,5.6-1.61,7.59
			c-1.08,1.99-2.44,3.55-4.09,4.67c1.57,3.34,3.14,6.67,4.71,9.99c0.32,0.73,0.7,1.03,1.16,0.93c0,0.27,0,0.53,0,0.8
			c-2.76,0.66-5.53,1.29-8.3,1.89c0-0.27,0-0.53,0-0.8c0.59-0.17,0.88-0.64,0.88-1.39c0-0.09-0.11-0.38-0.32-0.86
			c-0.21-0.49-0.48-1.07-0.8-1.76c-0.32-0.69-0.67-1.42-1.06-2.21c-0.39-0.78-0.76-1.54-1.12-2.26c-0.36-0.72-0.67-1.37-0.94-1.94
			c-0.27-0.57-0.44-0.95-0.52-1.16c-1.31,0.27-2.62,0.53-3.93,0.79C190.49,161.67,190.49,165.4,190.49,169.14z M197.22,149.48
			c1.17-0.25,1.98-0.8,2.42-1.63c0.44-0.83,0.66-1.73,0.66-2.71c0-0.98-0.22-1.79-0.66-2.42c-0.44-0.64-1.25-0.83-2.42-0.58
			c-2.24,0.48-4.48,0.94-6.73,1.38c0,2.45,0,4.89,0,7.34C192.74,150.42,194.98,149.96,197.22,149.48z"/>
	</g>
</g>
</svg>
