<?xml version="1.0" encoding="utf-8"?>
<!-- Generator: Adobe Illustrator 27.5.0, SVG Export Plug-In . SVG Version: 6.00 Build 0)  -->
<svg version="1.1" id="Layer_1" xmlns="http://www.w3.org/2000/svg" xmlns:xlink="http://www.w3.org/1999/xlink" x="0px" y="0px"
	 viewBox="0 0 746 114" style="enable-background:new 0 0 746 114;" xml:space="preserve">
<style type="text/css">
	.st0{fill:#077E60;stroke:#D06529;stroke-width:1.7;stroke-miterlimit:10;}
</style>
<g>
	<g>
		<path class="st0" d="M4.16,53.78c0-0.51-0.13-0.9-0.38-1.17s-0.92-0.35-1.99-0.24c0-0.44,0-0.88,0-1.32
			c9.38-2.25,18.79-4.41,28.2-6.48c3.91-0.86,7.32-0.86,10.21-0.02c2.9,0.85,5.28,2.38,7.16,4.59c1.87,2.21,3.28,4.98,4.22,8.31
			s1.41,7.04,1.41,11.15c0,3.74-0.5,7.45-1.49,11.14c-1,3.69-2.5,7.08-4.52,10.17c-2.02,3.1-4.52,5.77-7.5,8.02
			c-2.98,2.25-6.46,3.81-10.43,4.69c-9.1,2.01-18.19,4.1-27.26,6.28c0-0.44,0-0.88,0-1.32c1.07-0.4,1.74-0.8,1.99-1.19
			s0.38-0.84,0.38-1.36C4.16,87.94,4.16,70.86,4.16,53.78z M27.69,89.93c4.48-0.99,7.71-3.18,9.7-6.57
			c1.99-3.4,2.98-7.44,2.98-12.13s-0.99-8.31-2.98-10.85c-1.99-2.54-5.22-3.33-9.7-2.33c-3.6,0.8-7.2,1.61-10.79,2.44
			c0,10.63,0,21.26,0,31.88C20.49,91.54,24.09,90.73,27.69,89.93z"/>
		<path class="st0" d="M92.62,68.79c-0.11-0.71-0.36-1.27-0.73-1.68c-0.37-0.41-0.98-0.54-1.84-0.38c-5.3,0.96-10.61,1.94-15.9,2.95
			c0,3.41,0,6.82,0,10.23c9.14-1.74,18.3-3.41,27.46-4.99c0.46-0.08,0.8-0.34,1.03-0.78s0.4-1.37,0.51-2.78
			c0.34-0.06,0.69-0.12,1.03-0.18c0,6.27,0,12.53,0,18.8c-0.34,0.06-0.69,0.12-1.03,0.18c-0.11-0.93-0.29-1.49-0.51-1.67
			c-0.23-0.18-0.57-0.23-1.03-0.15c-14.25,2.46-28.47,5.12-42.66,7.97c0-0.44,0-0.88,0-1.32c1.08-0.36,1.75-0.74,2.01-1.12
			c0.26-0.38,0.38-0.83,0.38-1.34c0-17.08,0-34.16,0-51.24c0-0.51-0.13-0.91-0.38-1.19c-0.26-0.28-0.93-0.38-2.01-0.31
			c0-0.44,0-0.88,0-1.32c14.19-2.85,28.41-5.51,42.66-7.97c0.46-0.08,0.8-0.34,1.03-0.78s0.4-1.3,0.51-2.56
			c0.34-0.06,0.69-0.12,1.03-0.18c0,6.38,0,12.75,0,19.13c-0.34,0.06-0.69,0.12-1.03,0.18c-0.11-1.23-0.29-2.02-0.51-2.39
			c-0.23-0.36-0.57-0.51-1.03-0.43c-9.16,1.58-18.32,3.25-27.46,4.99c0,3.04,0,6.08,0,9.13c5.3-1.01,10.6-1.99,15.9-2.95
			c0.86-0.15,1.47-0.5,1.84-1.04s0.61-1.19,0.73-1.94c0.34-0.06,0.69-0.12,1.03-0.18c0,5.72,0,11.43,0,17.15
			C93.31,68.67,92.96,68.73,92.62,68.79z"/>
		<path class="st0" d="M115.49,63.67c-0.12,0.46-0.17,1.24-0.17,2.34c0,0.73,0.53,1.47,1.59,2.21s2.43,1.38,4.12,1.92
			s3.62,0.91,5.79,1.12c2.17,0.21,4.38,0.15,6.61-0.19c4.29-0.65,7.44-1.76,9.45-3.33c2-1.57,3.01-3.57,3.01-5.99
			c0-1.32-0.87-2.13-2.62-2.42c-1.75-0.3-3.94-0.41-6.57-0.35c-2.63,0.07-5.47,0.13-8.5,0.2c-3.03,0.07-5.86-0.22-8.49-0.86
			s-4.82-1.82-6.56-3.55c-1.74-1.73-2.61-4.35-2.61-7.87c0-2.78,0.5-5.4,1.5-7.84s2.4-4.61,4.2-6.52c1.8-1.9,3.99-3.52,6.56-4.85
			c2.57-1.32,5.43-2.23,8.58-2.71c2.92-0.45,5.64-0.62,8.16-0.51c2.52,0.1,4.75,0.31,6.7,0.62c1.95,0.31,3.58,0.61,4.9,0.9
			s2.26,0.4,2.84,0.32c0.57-0.08,1.03-0.31,1.38-0.68c0.34-0.38,0.66-0.81,0.95-1.28c0.32,0.1,0.63,0.21,0.95,0.31
			c-1.98,5.36-3.96,10.73-5.93,16.1c-0.34-0.17-0.69-0.34-1.03-0.51c0-0.4,0-0.81,0-1.21c0-0.66-0.56-1.26-1.68-1.8
			c-1.12-0.54-2.54-0.96-4.25-1.26c-1.72-0.3-3.64-0.48-5.76-0.53s-4.18,0.08-6.18,0.38c-3.72,0.57-6.32,1.53-7.81,2.86
			c-1.49,1.33-2.23,2.63-2.23,3.87c0,1.25,0.51,2.1,1.54,2.56c1.03,0.46,2.37,0.71,4.03,0.74c1.66,0.04,3.55-0.02,5.67-0.16
			s4.29-0.19,6.53-0.15c2.23,0.04,4.41,0.23,6.53,0.59s4.01,1.06,5.67,2.11s3.01,2.55,4.04,4.5s1.55,4.5,1.55,7.65
			c0,2.42-0.39,4.85-1.16,7.3c-0.77,2.45-2.09,4.74-3.96,6.87c-1.86,2.13-4.36,3.96-7.48,5.51c-3.12,1.55-7,2.67-11.64,3.37
			c-3.61,0.55-6.71,0.81-9.31,0.78c-2.6-0.03-4.82-0.2-6.65-0.53c-1.83-0.32-3.27-0.66-4.33-1s-1.84-0.46-2.36-0.38
			c-0.34,0.06-0.64,0.26-0.9,0.59c-0.26,0.34-0.53,0.71-0.81,1.13c-0.34-0.05-0.69-0.11-1.03-0.16c2.11-6.88,4.23-13.75,6.34-20.63
			C114.92,63.4,115.21,63.53,115.49,63.67z"/>
		<path class="st0" d="M198.65,53.51c-0.12-0.72-0.36-1.3-0.73-1.73c-0.37-0.43-0.99-0.61-1.85-0.51
			c-5.34,0.6-10.69,1.22-16.03,1.87c0,3.41,0,6.82,0,10.23c9.21-1.12,18.44-2.17,27.67-3.13c0.46-0.05,0.81-0.28,1.04-0.71
			c0.23-0.43,0.4-1.34,0.52-2.75c0.35-0.04,0.69-0.07,1.04-0.11c0,6.27,0,12.53,0,18.8c-0.35,0.04-0.69,0.07-1.04,0.11
			c-0.12-0.94-0.29-1.51-0.52-1.71c-0.23-0.2-0.58-0.27-1.04-0.22c-14.35,1.49-28.68,3.18-42.99,5.07c0-0.44,0-0.88,0-1.32
			c1.09-0.29,1.76-0.62,2.02-0.98c0.26-0.36,0.39-0.8,0.39-1.32c0-17.08,0-34.16,0-51.24c0-0.51-0.13-0.92-0.39-1.21
			c-0.26-0.3-0.93-0.45-2.02-0.45c0-0.44,0-0.88,0-1.32c14.31-1.89,28.64-3.58,42.99-5.07c0.46-0.05,0.81-0.28,1.04-0.71
			s0.4-1.27,0.52-2.53c0.35-0.04,0.69-0.07,1.04-0.11c0,6.38,0,12.75,0,19.13c-0.35,0.04-0.69,0.07-1.04,0.11
			c-0.12-1.23-0.29-2.04-0.52-2.42c-0.23-0.38-0.58-0.54-1.04-0.5c-9.23,0.96-18.45,2-27.67,3.13c0,3.04,0,6.08,0,9.13
			c5.34-0.65,10.68-1.27,16.03-1.87c0.86-0.1,1.48-0.4,1.85-0.92s0.62-1.15,0.73-1.9c0.34-0.04,0.69-0.08,1.03-0.11
			c0,5.72,0,11.43,0,17.15C199.34,53.44,198.99,53.47,198.65,53.51z"/>
		<path class="st0" d="M233.25,67.9c0,0.51,0.13,0.92,0.39,1.23s0.93,0.49,2.03,0.54c0,0.44,0,0.88,0,1.32
			c-5.93,0.51-11.86,1.06-17.78,1.64c0-0.44,0-0.88,0-1.32c1.09-0.25,1.77-0.56,2.03-0.91c0.26-0.36,0.39-0.79,0.39-1.3
			c0-17.08,0-34.16,0-51.24c0-0.51-0.13-0.92-0.39-1.23c-0.26-0.3-0.94-0.48-2.03-0.52c0-0.44,0-0.88,0-1.32
			c10.53-1.03,21.06-1.95,31.61-2.77c6.39-0.5,11.03,0.66,13.91,3.43s4.32,7.28,4.32,13.51c0,5.06-1.17,9.09-3.5,12.11
			s-5.29,5.28-8.86,6.79c3.4,5.83,6.8,11.68,10.2,17.53c0.69,1.27,1.53,1.88,2.51,1.81c0,0.44,0,0.88,0,1.32
			c-5.99,0.39-11.99,0.82-17.98,1.29c0-0.44,0-0.88,0-1.32c1.27-0.17,1.9-0.88,1.9-2.12c0-0.15-0.23-0.64-0.69-1.49
			c-0.46-0.84-1.04-1.86-1.73-3.05s-1.46-2.47-2.29-3.83c-0.84-1.36-1.64-2.67-2.42-3.93s-1.45-2.37-2.03-3.35
			c-0.58-0.98-0.95-1.64-1.12-2c-2.82,0.23-5.64,0.47-8.46,0.72C233.25,55.59,233.25,61.74,233.25,67.9z M247.76,36.57
			c2.53-0.2,4.28-0.94,5.23-2.22s1.43-2.73,1.43-4.34c0-1.61-0.48-2.99-1.43-4.13c-0.95-1.14-2.69-1.61-5.23-1.41
			c-4.84,0.38-9.68,0.78-14.51,1.21c0,4.03,0,8.06,0,12.09C238.08,37.35,242.92,36.95,247.76,36.57z"/>
		<path class="st0" d="M286.4,66.1c1.09-0.2,1.77-0.48,2.03-0.82c0.26-0.34,0.39-0.77,0.39-1.29c0-13.71,0-27.41,0-41.12
			c-4.96,0.26-9.92,0.55-14.88,0.85c-0.46,0.03-0.81,0.25-1.04,0.67s-0.4,1.25-0.52,2.51c-0.35,0.02-0.69,0.04-1.04,0.07
			c0-6.52,0-13.05,0-19.57c0.35-0.02,0.69-0.04,1.04-0.07c0.11,1.24,0.29,2.05,0.52,2.44c0.23,0.39,0.58,0.57,1.04,0.54
			c14.24-0.88,28.49-1.58,42.74-2.08c0.46-0.02,0.81-0.23,1.04-0.64c0.23-0.41,0.4-1.24,0.52-2.49c0.35-0.01,0.69-0.02,1.04-0.04
			c0,6.52,0,13.05,0,19.57c-0.35,0.01-0.69,0.02-1.04,0.04c-0.12-1.24-0.29-2.06-0.52-2.46c-0.23-0.39-0.58-0.58-1.04-0.57
			c-4.96,0.17-9.93,0.37-14.89,0.59c0,13.71,0,27.41,0,41.12c0,0.51,0.13,0.93,0.39,1.25s0.94,0.53,2.03,0.63c0,0.44,0,0.88,0,1.32
			c-5.94,0.26-11.88,0.54-17.82,0.87C286.4,66.98,286.4,66.54,286.4,66.1z"/>
		<path class="st0" d="M357.04,63.84c1.1-0.16,1.77-0.4,2.03-0.73s0.39-0.75,0.39-1.27c0-13.71,0-27.41,0-41.12
			c-4.97,0.04-9.93,0.11-14.89,0.19c-0.46,0.01-0.81,0.22-1.04,0.62c-0.23,0.41-0.4,1.24-0.52,2.48c-0.35,0.01-0.69,0.01-1.04,0.02
			c0-6.52,0-13.05,0-19.57c0.35-0.01,0.69-0.01,1.04-0.02c0.12,1.25,0.29,2.07,0.52,2.46c0.23,0.4,0.58,0.59,1.04,0.59
			c14.26-0.25,28.52-0.31,42.78-0.18c0.46,0,0.81-0.19,1.04-0.6c0.23-0.4,0.4-1.22,0.52-2.47c0.35,0,0.69,0.01,1.04,0.01
			c0,6.52,0,13.05,0,19.57c-0.35,0-0.69-0.01-1.04-0.01c-0.12-1.25-0.29-2.07-0.52-2.48c-0.23-0.4-0.58-0.61-1.04-0.61
			c-4.97-0.05-9.93-0.07-14.9-0.07c0,13.71,0,27.41,0,41.12c0,0.51,0.13,0.93,0.39,1.26s0.94,0.57,2.03,0.72c0,0.44,0,0.88,0,1.32
			c-5.95-0.01-11.89,0.02-17.84,0.08C357.04,64.72,357.04,64.28,357.04,63.84z"/>
		<path class="st0" d="M446.04,63.47c0,0.51,0.13,0.94,0.39,1.28s0.94,0.61,2.03,0.81c0,0.44,0,0.88,0,1.32
			c-5.94-0.28-11.89-0.53-17.83-0.75c0-0.44,0-0.88,0-1.32c1.1-0.11,1.77-0.32,2.03-0.64c0.26-0.32,0.39-0.74,0.39-1.25
			c0-6.78,0-13.56,0-20.34c-7.5-0.28-15-0.52-22.51-0.69c0,6.78,0,13.56,0,20.34c0,0.51,0.13,0.94,0.39,1.27
			c0.26,0.34,0.94,0.59,2.03,0.76c0,0.44,0,0.88,0,1.32c-5.95-0.15-11.89-0.27-17.84-0.35c0-0.44,0-0.88,0-1.32
			c1.1-0.13,1.78-0.36,2.04-0.68c0.26-0.33,0.39-0.74,0.39-1.26c0-17.08,0-34.16,0-51.24c0-0.51-0.13-0.94-0.39-1.27
			c-0.26-0.33-0.94-0.58-2.04-0.74c0-0.44,0-0.88,0-1.32c5.95,0.08,11.89,0.2,17.84,0.35c0,0.44,0,0.88,0,1.32
			c-1.1,0.12-1.77,0.34-2.03,0.66c-0.26,0.32-0.39,0.74-0.39,1.26c0,5.83,0,11.65,0,17.48c7.5,0.18,15.01,0.41,22.51,0.69
			c0-5.83,0-11.65,0-17.48c0-0.51-0.13-0.94-0.39-1.28s-0.94-0.6-2.03-0.79c0-0.44,0-0.88,0-1.32c5.94,0.22,11.89,0.47,17.83,0.75
			c0,0.44,0,0.88,0,1.32c-1.1,0.1-1.77,0.3-2.03,0.62s-0.39,0.73-0.39,1.25C446.04,29.31,446.04,46.39,446.04,63.47z"/>
		<path class="st0" d="M495.68,15.3c0-0.51-0.13-0.95-0.39-1.29c-0.26-0.35-0.94-0.64-2.03-0.87c0-0.44,0-0.88,0-1.32
			c5.93,0.45,11.87,0.93,17.8,1.45c0,0.44,0,0.88,0,1.32c-1.09,0.05-1.77,0.23-2.03,0.54s-0.39,0.72-0.39,1.23
			c0,9.82,0,19.64,0,29.47c0,4.84-0.62,8.85-1.86,12.05c-1.24,3.19-2.94,5.69-5.1,7.49c-2.16,1.8-4.69,2.98-7.6,3.52
			c-2.91,0.55-6.01,0.7-9.29,0.47c-3.29-0.23-6.38-0.82-9.29-1.78c-2.91-0.96-5.45-2.49-7.61-4.6c-2.16-2.11-3.86-4.84-5.1-8.21
			c-1.24-3.37-1.86-7.47-1.86-12.31c0-9.82,0-19.64,0-29.47c0-0.51-0.13-0.94-0.39-1.29c-0.26-0.34-0.94-0.62-2.03-0.83
			c0-0.44,0-0.88,0-1.32c5.94,0.32,11.88,0.67,17.82,1.06c0,0.44,0,0.88,0,1.32c-1.1,0.08-1.77,0.27-2.03,0.58
			c-0.26,0.31-0.39,0.73-0.39,1.24c0,9.82,0,19.64,0,29.47c0,4.25,0.95,7.35,2.85,9.31c1.9,1.96,4.58,3.05,8.04,3.3
			c3.46,0.24,6.14-0.47,8.04-2.16c1.9-1.69,2.85-4.66,2.85-8.91C495.68,34.94,495.68,25.12,495.68,15.3z"/>
		<path class="st0" d="M523.49,17.7c0-0.51-0.13-0.95-0.39-1.3c-0.26-0.35-0.94-0.66-2.03-0.91c0-0.44,0-0.88,0-1.32
			c6.93,0.65,13.87,1.34,20.79,2.08c0,0.44,0,0.88,0,1.32c-0.98-0.03-1.63,0.07-1.94,0.29c-0.32,0.22-0.47,0.52-0.47,0.88
			c0,0.15,0.37,0.85,1.12,2.1s1.72,2.82,2.93,4.71s2.57,4,4.1,6.33c1.52,2.33,3.06,4.67,4.61,7c1.55,2.34,3.04,4.56,4.48,6.67
			c1.43,2.11,2.67,3.92,3.7,5.44c0-9.79,0-19.57,0-29.36c0-1.25-0.6-1.98-1.81-2.19c0-0.44,0-0.88,0-1.32
			c5.26,0.62,10.51,1.26,15.76,1.93c0,0.44,0,0.88,0,1.32c-1.09,0.01-1.77,0.16-2.02,0.46c-0.26,0.3-0.39,0.7-0.39,1.22
			c0,17.08,0,34.16,0,51.24c0,0.51,0.13,0.95,0.39,1.31s0.93,0.69,2.02,0.97c0,0.44,0,0.88,0,1.32c-5.45-0.7-10.91-1.36-16.36-2
			c0-0.44,0-0.88,0-1.32c0.8,0.09,1.34,0.05,1.59-0.14c0.26-0.19,0.39-0.47,0.39-0.83c0-0.22-0.09-0.51-0.26-0.86
			s-0.55-0.96-1.12-1.84c-0.58-0.87-1.42-2.13-2.54-3.76c-1.12-1.63-2.6-3.82-4.44-6.56c-1.84-2.74-4.11-6.14-6.81-10.21
			s-5.95-9.01-9.74-14.83c0,11.51,0,23.02,0,34.52c0,0.51,0.13,0.95,0.39,1.3c0.26,0.36,0.93,0.66,2.03,0.92c0,0.44,0,0.88,0,1.32
			c-5.46-0.57-10.93-1.11-16.39-1.62c0-0.44,0-0.88,0-1.32c1.09-0.04,1.77-0.22,2.03-0.52c0.26-0.31,0.39-0.71,0.39-1.23
			C523.49,51.86,523.49,34.78,523.49,17.7z"/>
		<path class="st0" d="M586.22,24.92c0-0.51-0.13-0.95-0.39-1.32c-0.26-0.36-0.93-0.69-2.02-0.99c0-0.44,0-0.88,0-1.32
			c9.52,1.27,19.03,2.63,28.53,4.08c3.95,0.6,7.38,1.87,10.3,3.8s5.32,4.35,7.2,7.26c1.89,2.91,3.3,6.21,4.24,9.88
			c0.94,3.68,1.41,7.57,1.41,11.67c0,3.74-0.5,7.27-1.5,10.58c-1,3.32-2.52,6.14-4.54,8.49c-2.03,2.34-4.54,4.08-7.55,5.22
			c-3,1.14-6.51,1.4-10.51,0.79c-9.19-1.39-18.38-2.7-27.59-3.94c0-0.44,0-0.88,0-1.32c1.09,0,1.76-0.15,2.02-0.44
			c0.26-0.3,0.39-0.7,0.39-1.21C586.22,59.08,586.22,42,586.22,24.92z M610.03,69.89c4.52,0.68,7.78-0.29,9.79-2.95
			c2-2.65,3-6.32,3-11.02c0-4.69-1-8.68-3-11.96c-2-3.28-5.26-5.28-9.79-5.96c-3.64-0.55-7.27-1.08-10.91-1.61
			c0,10.63,0,21.26,0,31.88C602.76,68.8,606.39,69.34,610.03,69.89z"/>
		<path class="st0" d="M675.21,72.96c-0.11-0.75-0.36-1.41-0.73-1.95c-0.37-0.55-0.98-0.9-1.84-1.07c-5.3-1.02-10.6-2-15.9-2.97
			c0,3.41,0,6.82,0,10.23c9.15,1.66,18.3,3.4,27.43,5.22c0.45,0.09,0.8-0.04,1.02-0.4c0.23-0.36,0.4-1.22,0.51-2.59
			c0.34,0.07,0.68,0.14,1.02,0.21c0,6.27,0,12.53,0,18.8c-0.34-0.07-0.68-0.14-1.02-0.21c-0.11-0.98-0.28-1.6-0.51-1.86
			c-0.23-0.27-0.57-0.44-1.02-0.53c-14.19-2.83-28.42-5.47-42.67-7.91c0-0.44,0-0.88,0-1.32c1.08,0.04,1.76-0.08,2.01-0.37
			c0.26-0.29,0.38-0.68,0.39-1.2c0-17.08,0-34.16,0-51.24c0-0.51-0.13-0.96-0.39-1.33s-0.93-0.73-2.01-1.06c0-0.44,0-0.88,0-1.32
			c14.25,2.44,28.47,5.08,42.67,7.91c0.45,0.09,0.8-0.04,1.02-0.4c0.23-0.36,0.4-1.15,0.51-2.37c0.34,0.07,0.68,0.14,1.02,0.21
			c0,6.38,0,12.75,0,19.13c-0.34-0.07-0.68-0.14-1.02-0.21c-0.11-1.27-0.28-2.13-0.51-2.58s-0.57-0.72-1.02-0.81
			c-9.13-1.82-18.27-3.56-27.43-5.22c0,3.04,0,6.08,0,9.13c5.3,0.96,10.6,1.95,15.9,2.97c0.85,0.16,1.47,0.05,1.84-0.36
			c0.37-0.4,0.61-0.96,0.73-1.67c0.34,0.07,0.68,0.13,1.03,0.2c0,5.72,0,11.43,0,17.15C675.89,73.09,675.55,73.03,675.21,72.96z"/>
		<path class="st0" d="M709.4,97.78c0,0.51,0.13,0.96,0.38,1.35c0.26,0.38,0.92,0.77,2,1.15c0,0.44,0,0.88,0,1.32
			c-5.84-1.27-11.69-2.51-17.55-3.72c0-0.44,0-0.88,0-1.32c1.08,0.08,1.75-0.02,2-0.3c0.26-0.28,0.38-0.67,0.38-1.19
			c0-17.08,0-34.16,0-51.24c0-0.51-0.13-0.96-0.38-1.34c-0.26-0.38-0.93-0.76-2-1.13c0-0.44,0-0.88,0-1.32
			c10.4,2.14,20.79,4.39,31.15,6.75c6.29,1.43,10.84,3.98,13.67,7.62c2.83,3.64,4.24,8.58,4.24,14.81c0,5.06-1.15,8.74-3.43,11.06
			c-2.29,2.32-5.19,3.69-8.7,4.12c3.34,6.86,6.68,13.72,10.02,20.6c0.68,1.48,1.5,2.34,2.46,2.57c0,0.44,0,0.88,0,1.32
			c-5.88-1.41-11.77-2.78-17.66-4.12c0-0.44,0-0.88,0-1.32c1.25,0.21,1.87-0.31,1.87-1.55c0-0.15-0.23-0.71-0.68-1.69
			s-1.02-2.17-1.7-3.58c-0.68-1.4-1.43-2.91-2.25-4.52c-0.82-1.62-1.62-3.17-2.38-4.66s-1.43-2.81-2-3.96
			c-0.57-1.15-0.94-1.93-1.11-2.33c-2.78-0.62-5.56-1.23-8.34-1.83C709.4,85.47,709.4,91.62,709.4,97.78z M723.69,70.81
			c2.49,0.56,4.21,0.35,5.14-0.64c0.94-0.99,1.4-2.3,1.4-3.91s-0.47-3.13-1.4-4.56c-0.93-1.42-2.65-2.42-5.14-2.98
			c-4.76-1.08-9.52-2.13-14.29-3.16c0,4.03,0,8.06,0,12.09C714.17,68.68,718.93,69.74,723.69,70.81z"/>
	</g>
</g>
</svg>
